<svg width="52" height="51" viewBox="0 0 52 51" fill="none" xmlns="http://www.w3.org/2000/svg">
<path d="M42.9814 21.5137C35.58 27.0364 32.3166 33.377 37.1672 42.2603L35.8391 42.4222C33.6284 41.3533 31.2881 40.4707 29.2232 39.1588C26.6238 37.4988 24.3807 37.5797 21.8299 39.2803C19.6192 40.7541 17.1494 41.8311 13.5135 43.7665C18.2426 34.1058 15.2059 27.5951 6.25781 22.4045C8.80052 22.0967 9.79656 21.8862 10.7845 21.87C17.4409 21.7485 21.8056 18.7442 23.409 12.0878C23.6114 11.2457 24.2107 10.5007 25.2634 8.48431C27.7737 18.0235 32.8429 22.9308 42.9733 21.5137H42.9814ZM37.0862 23.854C30.6889 24.1617 27.0773 21.1007 25.0042 15.2298C23.4576 21.457 19.6759 24.2427 13.2219 24.0645C18.4126 27.6761 20.1051 32.1866 18.2021 38.43C23.1255 33.6361 27.798 34.5755 32.851 37.8551C30.7861 32.1137 31.5149 27.498 37.0862 23.854Z" fill="#FFC70A"/>
<path d="M9.34281 50.5525C10.1202 45.2727 10.5737 40.5922 11.5778 36.025C12.1608 33.377 11.3673 31.8708 9.59384 30.0488C6.31422 26.6801 3.40711 22.9389 0.5 19.5379C4.08733 18.89 8.83264 17.7887 13.6427 17.2786C16.2097 17.0032 17.4163 15.9019 18.3638 13.7398C20.2506 9.4399 22.3317 5.22902 24.7124 0.184082C27.0851 4.69456 29.4983 8.50055 31.1259 12.6223C32.4702 16.0315 34.8671 16.7846 37.9524 17.1004C42.1794 17.5377 46.3822 18.1126 51.5 18.7443C47.4106 22.9308 43.8152 26.3238 40.6084 30.0488C39.58 31.2392 38.9889 33.3608 39.1913 34.9318C39.8068 39.6852 40.9 44.3738 41.9689 49.9047C37.1831 47.5482 32.8345 45.6938 28.7856 43.313C26.2834 41.8392 24.429 42.1955 22.1454 43.5479C18.137 45.9205 13.9748 48.034 9.33471 50.5444L9.34281 50.5525ZM24.8825 6.20885C23.3844 9.27792 21.9916 11.5858 21.1008 14.0799C19.8214 17.6835 17.967 19.9751 13.7156 20.0156C10.8571 20.048 7.99857 20.9307 5.35869 21.4004C7.82042 24.105 10.3955 26.6396 12.59 29.4658C13.578 30.7452 14.3392 32.632 14.2744 34.203C14.1286 37.8713 13.4241 41.5153 12.8815 45.5966C16.4446 43.6693 19.5218 41.7016 22.85 40.3411C24.4371 39.6933 26.664 39.6852 28.2917 40.2682C31.4822 41.41 34.446 43.1592 38.2196 45.0136C37.4584 40.7298 37.0616 37.2559 36.187 33.9196C35.5716 31.5874 36.3004 30.1703 37.92 28.6641C40.5194 26.2509 42.9406 23.6435 45.872 20.6797C41.9689 20.2262 38.9241 19.8213 35.8712 19.5379C33.0451 19.2706 30.8263 18.4689 29.6359 15.4566C28.4617 12.4766 26.7126 9.72332 24.8744 6.22507L24.8825 6.20885Z" fill="#FFC70A"/>
</svg>
