<svg width="52" height="53" viewBox="0 0 52 53" fill="none" xmlns="http://www.w3.org/2000/svg">
<path d="M25.2781 0C37.4985 4.71881 46.1356 12.8931 52 24.514C47.2607 27.3488 42.8048 30.012 38.2382 32.7411C39.9302 34.9905 41.1748 37.4159 40.0276 40.0703C39.4164 41.4833 38.216 43.1208 36.874 43.6578C32.3827 45.4582 27.7496 46.9328 23.0944 48.2798C20.2818 49.0941 17.6641 48.4426 15.7064 45.7223C12.4553 47.6283 9.23518 49.5211 6.00622 51.4051C5.18237 51.8893 4.38953 52.554 3.49481 52.7565C2.47608 52.9898 0.717647 53.1834 0.429743 52.7036C-0.0929132 51.8453 -0.137206 50.309 0.288006 49.345C1.79397 45.9247 3.57454 42.6233 5.25767 39.2867C11.5738 26.7898 17.8856 14.2929 24.2062 1.79596C24.4675 1.28095 24.7953 0.801141 25.2781 0ZM26.0886 2.09529C28.8525 9.83379 43.8855 22.8501 49.9581 22.8853C44.1469 13.5754 36.7145 6.43994 26.0886 2.09529ZM17.9077 44.4545C19.5687 46.4442 21.3449 46.1801 23.0369 45.7883C24.8883 45.3569 26.6999 44.7362 28.507 44.1244C30.9343 43.3056 33.3704 42.4957 35.7489 41.5493C37.9724 40.6645 38.5925 38.173 37.3568 35.8004C36.0723 33.3398 34.6327 34.8232 33.2154 35.598C32.5687 35.9501 31.9397 36.3331 31.3063 36.6984C26.9391 39.2251 22.5718 41.7562 17.9077 44.4545ZM21.0392 15.5474C20.9197 15.4594 20.8045 15.3713 20.6849 15.2833C20.4546 15.6487 20.211 16.0052 20.0028 16.3838C14.01 27.142 7.99498 37.8869 2.07744 48.6803C1.52378 49.6884 1.55921 51.0089 1.32003 52.1842C3.38851 52.5188 3.67642 50.7712 4.28766 49.5563C7.3483 43.4729 10.3469 37.3543 13.3544 31.2401C15.9278 26.0151 18.4791 20.7768 21.0392 15.543V15.5474ZM33.6583 25.2007C34.1898 24.6329 34.8321 23.9506 35.5629 23.1715C34.2651 22.2823 33.0426 21.4459 31.8201 20.6096C34.181 19.4079 34.7523 21.8069 36.493 22.2867C36.9005 21.9257 37.4055 21.4723 38.0212 20.9177C37.4852 20.4687 37.1397 20.1034 36.7278 19.8392C35.1111 18.796 33.3748 18.1093 32.1789 16.2957C30.4825 13.7294 28.9765 13.9759 27.2092 16.5819C26.7707 17.2289 26.3588 17.8936 26.0842 18.3206C28.6488 20.6492 31.076 22.8501 33.6672 25.2007H33.6583ZM22.0757 24.0518C23.4133 25.0203 24.565 25.7598 25.6058 26.6357C26.6822 27.5425 27.9844 29.5718 28.5956 29.3649C29.9908 28.8983 31.0317 27.3665 32.2055 26.2572C32.2941 26.1735 32.2985 26.0063 32.3649 25.7994C31.5411 25.0335 30.6995 24.2499 29.8535 23.4664C29.6099 23.5852 29.3663 23.7041 29.1271 23.8185C29.3796 24.5537 29.6276 25.2844 29.9377 26.1823C29.7871 26.3276 29.4505 26.6445 29.1759 26.9043C27.6167 25.4736 26.1949 24.1751 24.4542 22.5772C25.659 22.3967 26.5759 22.2603 27.4927 22.1238C26.8372 21.2214 26.1817 20.319 25.3977 19.2362C24.1087 21.107 23.1122 22.5508 22.0801 24.0474L22.0757 24.0518ZM21.4556 24.9762C20.2951 26.6401 19.272 28.1148 18.4348 29.3077C20.2154 30.9144 21.8277 32.367 23.6304 33.9913C24.7288 33.0053 26.0621 31.8123 27.5414 30.483C26.6733 29.7082 25.9513 29.0612 24.7156 27.9519C24.7997 29.6158 24.8484 30.5666 24.9282 32.0765C23.3203 30.7031 22.2839 29.8711 21.3271 28.9555C21.0791 28.7222 20.9152 28.1808 21.0127 27.8815C21.0835 27.6614 21.6416 27.5645 21.996 27.4721C22.399 27.3665 22.8154 27.3312 23.2273 27.2652C23.0501 26.8514 22.9394 26.398 22.6825 26.0415C22.43 25.6981 22.0358 25.4604 21.46 24.9674L21.4556 24.9762ZM15.9633 32.7103C16.889 33.5291 19.0549 33.8108 16.8403 35.5451C16.3265 34.9465 15.8481 34.3918 15.2767 33.736C14.7231 34.5107 14.2226 35.2106 13.8904 35.6728C15.2236 36.9053 16.3929 37.9926 17.7173 39.2163C18.2001 38.7761 18.8778 38.151 19.5289 37.548C18.8025 37.0198 18.1868 36.5752 17.5401 36.1042C19.2897 33.5159 19.613 36.289 20.366 36.5928C21.1588 35.9809 21.8808 35.4307 22.2839 35.1226C20.5742 33.5423 19.0815 32.1645 17.5047 30.7075C17.1282 31.1961 16.61 31.8696 15.9677 32.7059L15.9633 32.7103ZM11.5207 39.5905C12.0345 39.3263 12.4287 39.1679 12.7653 38.9302C13.195 38.6264 13.5803 38.2523 13.9834 37.9045C13.7796 37.702 13.5183 37.2927 13.3899 37.3279C12.9381 37.4644 12.4464 37.6668 12.1275 37.997C10.2805 39.8854 9.85085 41.8134 11.0025 42.7686C12.0965 43.6754 14.5592 42.7466 15.7772 40.8318C16.0386 40.4224 15.8171 39.7049 15.8171 38.5428C13.9922 40.6704 12.5601 41.0181 11.5207 39.5861V39.5905Z" fill="#FDC50E"/>
</svg>
